<svg xmlns="http://www.w3.org/2000/svg" width="32" height="32" fill="#ffffff" viewBox="0 0 24 24"><path d="M19.14 12.94a1.5 1.5 0 000-1.88l2.03-1.58a.5.5 0 00.12-.63l-1.92-3.32a.5.5 0 00-.61-.21l-2.39.96a6.5 6.5 0 00-1.5-.87l-.36-2.54a.5.5 0 00-.5-.42h-3.84a.5.5 0 00-.5.42l-.36 2.54a6.5 6.5 0 00-1.5.87l-2.39-.96a.5.5 0 00-.61.21L2.7 8.85a.5.5 0 00.12.63l2.03 1.58a1.5 1.5 0 000 1.88l-2.03 1.58a.5.5 0 00-.12.63l1.92 3.32a.5.5 0 00.61.21l2.39-.96c.46.36.97.66 1.5.87l.36 2.54a.5.5 0 00.5.42h3.84a.5.5 0 00.5-.42l.36-2.54c.53-.21 1.04-.51 1.5-.87l2.39.96a.5.5 0 00.61-.21l1.92-3.32a.5.5 0 00-.12-.63l-2.03-1.58zM12 15.5A3.5 3.5 0 1115.5 12 3.5 3.5 0 0112 15.5z"></path></svg>
